<svg width="216" height="36" viewBox="0 0 216 36" fill="none" xmlns="http://www.w3.org/2000/svg">
<path d="M134.062 27.3555V23.6055C134.742 24.1758 135.48 24.6055 136.277 24.8945C137.074 25.1758 137.879 25.3164 138.691 25.3164C139.168 25.3164 139.582 25.2734 139.934 25.1875C140.293 25.1016 140.59 24.9844 140.824 24.8359C141.066 24.6797 141.246 24.5 141.363 24.2969C141.48 24.0859 141.539 23.8594 141.539 23.6172C141.539 23.2891 141.445 22.9961 141.258 22.7383C141.07 22.4805 140.812 22.2422 140.484 22.0234C140.164 21.8047 139.781 21.5938 139.336 21.3906C138.891 21.1875 138.41 20.9805 137.895 20.7695C136.582 20.2227 135.602 19.5547 134.953 18.7656C134.312 17.9766 133.992 17.0234 133.992 15.9062C133.992 15.0312 134.168 14.2812 134.52 13.6562C134.871 13.0234 135.348 12.5039 135.949 12.0977C136.559 11.6914 137.262 11.3945 138.059 11.207C138.855 11.0117 139.699 10.9141 140.59 10.9141C141.465 10.9141 142.238 10.9688 142.91 11.0781C143.59 11.1797 144.215 11.3398 144.785 11.5586V15.0625C144.504 14.8672 144.195 14.6953 143.859 14.5469C143.531 14.3984 143.191 14.2773 142.84 14.1836C142.488 14.082 142.137 14.0078 141.785 13.9609C141.441 13.9141 141.113 13.8906 140.801 13.8906C140.371 13.8906 139.98 13.9336 139.629 14.0195C139.277 14.0977 138.98 14.2109 138.738 14.3594C138.496 14.5078 138.309 14.6875 138.176 14.8984C138.043 15.1016 137.977 15.332 137.977 15.5898C137.977 15.8711 138.051 16.125 138.199 16.3516C138.348 16.5703 138.559 16.7812 138.832 16.9844C139.105 17.1797 139.438 17.375 139.828 17.5703C140.219 17.7578 140.66 17.9531 141.152 18.1562C141.824 18.4375 142.426 18.7383 142.957 19.0586C143.496 19.3711 143.957 19.7266 144.34 20.125C144.723 20.5234 145.016 20.9805 145.219 21.4961C145.422 22.0039 145.523 22.5977 145.523 23.2773C145.523 24.2148 145.344 25.0039 144.984 25.6445C144.633 26.2773 144.152 26.793 143.543 27.1914C142.934 27.582 142.223 27.8633 141.41 28.0352C140.605 28.207 139.754 28.293 138.855 28.293C137.934 28.293 137.055 28.2148 136.219 28.0586C135.391 27.9023 134.672 27.668 134.062 27.3555ZM159.949 28H155.508L151.676 22.0469H151.629V28H147.926V10.2344H151.629V21.543H151.676L155.25 16H159.645L155.344 21.6367L159.949 28ZM172.781 16L167.906 28.9609C166.734 32.0781 164.969 33.6367 162.609 33.6367C161.711 33.6367 160.973 33.5352 160.395 33.332V30.3789C160.887 30.668 161.422 30.8125 162 30.8125C162.953 30.8125 163.617 30.3633 163.992 29.4648L164.625 27.9766L159.75 16H163.852L166.09 23.3008C166.23 23.7539 166.34 24.2891 166.418 24.9062H166.465C166.535 24.4531 166.664 23.9258 166.852 23.3242L169.113 16H172.781ZM181.641 21.332C181.641 23.582 181.117 25.3047 180.07 26.5C179.031 27.6953 177.523 28.293 175.547 28.293C174.664 28.293 173.848 28.1406 173.098 27.8359V24.2852C173.746 24.7773 174.473 25.0234 175.277 25.0234C177.004 25.0234 177.867 23.7422 177.867 21.1797V11.1953H181.641V21.332ZM195.738 23.0547H187.91C188.035 24.7969 189.133 25.668 191.203 25.668C192.523 25.668 193.684 25.3555 194.684 24.7305V27.4023C193.574 27.9961 192.133 28.293 190.359 28.293C188.422 28.293 186.918 27.7578 185.848 26.6875C184.777 25.6094 184.242 24.1094 184.242 22.1875C184.242 20.1953 184.82 18.6172 185.977 17.4531C187.133 16.2891 188.555 15.707 190.242 15.707C191.992 15.707 193.344 16.2266 194.297 17.2656C195.258 18.3047 195.738 19.7148 195.738 21.4961V23.0547ZM192.305 20.7812C192.305 19.0625 191.609 18.2031 190.219 18.2031C189.625 18.2031 189.109 18.4492 188.672 18.9414C188.242 19.4336 187.98 20.0469 187.887 20.7812H192.305ZM205.195 27.8594C204.648 28.1484 203.824 28.293 202.723 28.293C200.113 28.293 198.809 26.9375 198.809 24.2266V18.7305H196.863V16H198.809V13.4102L202.5 12.3555V16H205.195V18.7305H202.5V23.582C202.5 24.832 202.996 25.457 203.988 25.457C204.379 25.457 204.781 25.3438 205.195 25.1172V27.8594ZM214.547 27.8594C214 28.1484 213.176 28.293 212.074 28.293C209.465 28.293 208.16 26.9375 208.16 24.2266V18.7305H206.215V16H208.16V13.4102L211.852 12.3555V16H214.547V18.7305H211.852V23.582C211.852 24.832 212.348 25.457 213.34 25.457C213.73 25.457 214.133 25.3438 214.547 25.1172V27.8594Z" fill="white"/>
<rect x="120.5" width="2" height="36" rx="1" fill="white"/>
<path d="M97.7549 17.1994C103.549 15.4122 111.151 12.2477 110.456 8.08716C110.456 8.08716 110.013 5.59995 106.267 5.37798C106.267 5.37798 104.261 2.29314 99.6702 2.0228C99.6702 2.0228 94.6734 1.34265 74.7968 7.41271L49.9745 14.2483L25.0131 9.84302C24.8542 9.5869 24.6953 9.32793 24.5307 9.05758L22.3118 5.5658C21.3782 4.10022 19.5821 3.44 17.925 3.95509L15.7203 4.64092L16.5091 8.34044L7.41496 6.73542L5.28401 4.04615C4.80163 3.44 4.14617 3.00459 3.4141 2.7997C3.0963 2.71148 2.76432 2.6631 2.42666 2.6631H1.48745L3.66664 6.66997C4.50654 8.22377 5.93379 9.37916 7.62494 9.88286L17.4597 12.8026L19.7807 23.6963L18.8586 24.1886C18.8586 24.1886 9.44093 22.2876 3.90215 22.2876C2.38693 22.2876 1.16397 22.4299 0.5 22.7913L14.9457 26.2803C14.3895 26.6502 14.1398 27.3588 14.3867 28.0134C14.5541 28.4545 14.9371 28.7732 15.3883 28.9069C18.5181 29.8318 29.6297 32.689 42.1487 30.8876C43.9703 30.6258 46.2999 30.1847 48.9501 29.6269C48.9501 29.9883 49.0409 30.3668 49.3077 30.7425C49.7276 31.3259 50.42 31.6816 51.135 31.6076C51.5776 31.5592 51.9692 31.3685 52.2728 31.084C52.6616 31.8523 53.5298 32.319 54.4492 32.1255C55.3175 31.9405 55.9729 31.1636 56.007 30.2758C56.0438 29.3765 55.4962 28.6309 54.7414 28.3378C55.0025 28.278 55.2692 28.2154 55.5359 28.1528C60.3483 28.8415 65.9807 27.0885 65.9807 27.0885L71.1223 26.8352L70.3675 28.1585C70.3164 28.2496 70.3136 28.3605 70.359 28.4516C70.4356 28.6024 70.6144 28.6679 70.7676 28.5967L72.0416 28.0105L71.7267 30.899C71.3663 30.6201 70.9095 30.4636 70.4214 30.4863C69.329 30.5433 68.4635 31.5336 68.5515 32.6264C68.6423 33.7305 69.6156 34.5444 70.7108 34.4391C71.162 34.3965 71.5592 34.2029 71.8685 33.9155C72.2289 34.627 72.9978 35.0794 73.8406 34.9884C74.8848 34.8746 75.6821 33.907 75.597 32.8569C75.509 31.7527 74.5358 30.9388 73.4405 31.0441C73.3383 31.0555 73.239 31.0754 73.1426 31.0982L73.8803 28.8472L75.4267 28.093L75.177 26.6673L77.9351 26.9633C76.7235 27.9251 77.2229 28.5967 77.2229 28.5967C78.7721 28.3463 80.1909 27.0458 80.1909 27.0458L81.5302 27.0885L80.852 27.8739C80.6676 28.0874 80.7782 28.4175 81.0506 28.4801L81.7799 28.6394C82.407 29.7294 83.2866 29.311 83.2866 29.311L83.996 30.105L83.2866 30.566C83.7094 30.8022 84.2457 30.9246 84.7649 30.9844C85.6672 31.0868 86.5781 30.9986 87.4577 30.7709L93.8619 29.1005C93.8619 29.1005 96.688 28.2951 96.6994 25.2615C97.0881 25.3156 97.5024 25.2643 97.9848 24.6895C98.2118 24.4191 98.348 24.0719 98.3139 23.7219C98.2373 22.9393 97.545 22.3673 96.7675 22.4413C96.6256 22.4555 96.4951 22.4954 96.3731 22.5466L96.0922 18.9723C97.1676 18.8898 97.5875 17.9364 97.7549 17.1994ZM28.4833 23.6678L28.4209 24.1915C28.3925 24.4305 28.1769 24.6013 27.9357 24.5756C27.6973 24.5472 27.5271 24.3281 27.5555 24.089L27.615 23.5654C27.6434 23.3263 27.8619 23.1556 28.1003 23.1841C28.3216 23.2097 28.4862 23.3975 28.4862 23.6166C28.4862 23.6337 28.4862 23.6508 28.4833 23.6678ZM29.8311 23.2865L29.7687 23.8073C29.7403 24.0492 29.5247 24.2199 29.2863 24.1915C29.0451 24.163 28.8749 23.9467 28.9033 23.7048L28.9629 23.1841C28.9912 22.945 29.2097 22.7714 29.4481 22.7999C29.6722 22.8255 29.834 23.0162 29.834 23.2353C29.834 23.2524 29.834 23.2694 29.8311 23.2865ZM31.1789 22.9023L31.1193 23.426C31.091 23.665 30.8725 23.8357 30.6341 23.8101C30.3958 23.7817 30.2227 23.5625 30.2511 23.3235L30.3135 22.7999C30.3419 22.5608 30.5575 22.3901 30.7987 22.4185C31.02 22.4442 31.1818 22.632 31.1818 22.8511C31.1818 22.8682 31.1818 22.8853 31.1789 22.9023ZM32.5296 22.521L32.4672 23.0418C32.4388 23.2837 32.2231 23.4544 31.9819 23.426C31.7436 23.3975 31.5705 23.1812 31.5989 22.9393L31.6613 22.4185C31.6897 22.1767 31.9053 22.0059 32.1465 22.0344C32.3678 22.06 32.5324 22.2478 32.5324 22.4698C32.5324 22.4868 32.5324 22.5039 32.5296 22.521ZM33.8774 22.1368L33.815 22.6604C33.7866 22.8995 33.5709 23.0702 33.3298 23.0418C33.0914 23.0162 32.9212 22.797 32.9495 22.558L33.0091 22.0344C33.0375 21.7953 33.256 21.6246 33.4943 21.653C33.7157 21.6786 33.8802 21.8665 33.8802 22.0856C33.8802 22.1027 33.8802 22.1197 33.8774 22.1368ZM35.2252 21.7555L35.1656 22.2763C35.1372 22.5181 34.9187 22.6889 34.6804 22.6604C34.4392 22.632 34.269 22.4157 34.2973 22.1738L34.3598 21.653C34.3881 21.4111 34.6038 21.2404 34.8421 21.2688C35.0663 21.2945 35.228 21.4823 35.228 21.7043C35.228 21.7213 35.228 21.7384 35.2252 21.7555ZM33.5993 18.7589C33.5993 18.7589 32.609 19.513 29.8226 16.4765L35.6253 18.2011L33.5993 18.7589ZM36.573 21.3713L36.5134 21.8949C36.485 22.134 36.2666 22.3047 36.0282 22.2763C35.7899 22.2478 35.6168 22.0315 35.6451 21.7925L35.7076 21.2688C35.7359 21.0298 35.9516 20.8591 36.1928 20.8875C36.4141 20.9103 36.5758 21.1009 36.5758 21.3201C36.5758 21.3371 36.5758 21.3542 36.573 21.3713ZM37.9236 20.99L37.8612 21.5107C37.8329 21.7526 37.6172 21.9234 37.376 21.8949C37.1377 21.8665 36.9674 21.6473 36.9958 21.4083L37.0554 20.8875C37.0837 20.6456 37.3022 20.4749 37.5406 20.5033C37.7619 20.5289 37.9265 20.7168 37.9265 20.9387C37.9265 20.9558 37.9265 20.9729 37.9236 20.99ZM39.2715 20.6058L39.209 21.1294C39.1807 21.3685 38.965 21.5392 38.7267 21.5107C38.4855 21.4823 38.3152 21.266 38.3436 21.027L38.4032 20.5033C38.4316 20.2643 38.65 20.0935 38.8884 20.1192C39.1126 20.1448 39.2743 20.3354 39.2743 20.5546C39.2743 20.5716 39.2743 20.5887 39.2715 20.6058ZM71.633 11.8208L71.5734 12.3416C71.5451 12.5835 71.3266 12.7543 71.0882 12.7258C70.847 12.6973 70.6768 12.4811 70.7052 12.2392L70.7676 11.7184C70.796 11.4765 71.0116 11.3057 71.25 11.3342C71.4741 11.3598 71.6359 11.5505 71.6359 11.7696C71.6359 11.7867 71.6359 11.8038 71.633 11.8208ZM72.9808 11.4367L72.9212 11.9603C72.8929 12.1993 72.6744 12.3701 72.436 12.3416C72.1977 12.316 72.0246 12.0969 72.053 11.8578L72.1154 11.3342C72.1438 11.0952 72.3594 10.9244 72.6006 10.9529C72.8219 10.9785 72.9837 11.1663 72.9837 11.3854C72.9837 11.4025 72.9837 11.4196 72.9808 11.4367ZM74.3315 11.0553L74.2691 11.5761C74.2407 11.818 74.025 11.9887 73.7838 11.9603C73.5455 11.9318 73.3752 11.7155 73.4036 11.4737L73.4632 10.9529C73.4916 10.711 73.7101 10.5402 73.9484 10.5687C74.1697 10.5943 74.3343 10.7821 74.3343 11.0041C74.3343 11.0212 74.3343 11.0382 74.3315 11.0553ZM75.6793 10.6711L75.6169 11.1948C75.5885 11.4338 75.3728 11.6046 75.1345 11.5761C74.8933 11.5476 74.723 11.3314 74.7514 11.0923L74.811 10.5687C74.8394 10.3296 75.0579 10.1589 75.2962 10.1874C75.5204 10.2101 75.6821 10.4008 75.6821 10.6199C75.6821 10.637 75.6821 10.6541 75.6793 10.6711ZM77.0271 10.2898L76.9675 10.8106C76.9391 11.0525 76.7206 11.2232 76.4823 11.1948C76.2439 11.1663 76.0708 10.95 76.0992 10.7081L76.1617 10.1874C76.19 9.94546 76.4057 9.77472 76.6469 9.80318C76.8682 9.82879 77.0299 10.0166 77.0299 10.2386C77.0299 10.2557 77.0299 10.2727 77.0271 10.2898ZM78.3777 9.90562L78.3153 10.4292C78.2869 10.6683 78.0713 10.839 77.8301 10.8106C77.5917 10.7821 77.4187 10.5659 77.447 10.3268L77.5095 9.80318C77.5378 9.56413 77.7535 9.39338 77.9947 9.42184C78.216 9.4446 78.3806 9.63528 78.3806 9.8544C78.3806 9.87148 78.3806 9.88855 78.3777 9.90562ZM79.7255 9.52429L79.6631 10.0451C79.6347 10.287 79.4191 10.4577 79.1779 10.4292C78.9396 10.4008 78.7693 10.1817 78.7977 9.94262L78.8573 9.42184C78.8856 9.17995 79.1041 9.00921 79.3425 9.03766C79.5638 9.06328 79.7284 9.2511 79.7284 9.47307C79.7284 9.49014 79.7284 9.50722 79.7255 9.52429ZM81.0733 9.14011L81.0138 9.66373C80.9854 9.90278 80.7669 10.0735 80.5285 10.0451C80.2874 10.0166 80.1171 9.80033 80.1455 9.56129L80.2079 9.03766C80.2363 8.79862 80.4519 8.62787 80.6903 8.65348C80.9145 8.67909 81.0762 8.86976 81.0762 9.08889C81.0762 9.10596 81.0762 9.12303 81.0733 9.14011ZM82.4212 8.75877L82.3616 9.27955C82.3332 9.51859 82.1147 9.69219 81.8764 9.66373C81.638 9.63527 81.4649 9.41615 81.4933 9.1771L81.5557 8.65632C81.5841 8.41443 81.7997 8.24369 82.0409 8.27215C82.2623 8.29776 82.424 8.48558 82.424 8.70755C82.424 8.72463 82.424 8.7417 82.4212 8.75877ZM90.8088 20.4635C88.6353 20.0025 84.4982 21.4709 84.4982 21.4709L83.6214 20.9871C85.985 20.3497 87.9429 19.8146 89.3134 19.439C90.6839 19.0634 91.4642 18.8471 91.4642 18.8471C91.4642 18.8471 92.795 18.5739 94.75 18.0588L94.943 21.1294C93.1866 19.7407 90.8088 20.4635 90.8088 20.4635ZM101.815 3.71319L104.375 3.96932C104.409 3.97217 104.443 3.98923 104.468 4.01484L105.453 5.03649C105.55 5.13609 105.473 5.30115 105.337 5.29261L102.579 5.1304C102.533 5.12755 102.491 5.10478 102.465 5.06779L101.676 3.95224C101.6 3.84694 101.685 3.70181 101.815 3.71319ZM99.8178 3.89533C99.8405 3.8441 99.8859 3.80995 99.9398 3.80426L100.913 3.69043C100.967 3.68474 101.021 3.71035 101.055 3.75589L101.898 4.97388C101.96 5.06495 101.906 5.193 101.796 5.21008L99.3383 5.59141C99.2219 5.60849 99.1283 5.48896 99.1765 5.37798L99.8178 3.89533ZM97.2868 4.93404C97.4144 4.64946 97.6216 4.40756 97.8855 4.23682C98.0813 4.10876 98.3026 4.02623 98.5353 3.99208L99.3014 3.88109L98.4813 5.74509L96.7845 6.06097L97.2868 4.93404Z" fill="white"/>
</svg>
