<svg width="24" height="24" viewBox="0 0 24 24" fill="none" xmlns="http://www.w3.org/2000/svg">
<g clip-path="url(#clip0_16_158)">
<path d="M6.2214 6.21325C7.92324 5.10736 9.89522 4.28571 12 4.28571C16.7828 4.28571 20.88 8.52861 22.68 10.7079C22.9642 11.0623 23.1216 11.5227 23.1216 12.0001C23.1216 12.4775 22.9642 12.9379 22.68 13.2923C21.6878 14.4935 19.9975 16.3218 17.8793 17.7209M14.5714 19.3195C13.7445 19.5696 12.8839 19.7144 12 19.7144C7.21711 19.7144 3.11997 15.4716 1.31996 13.2923C1.03567 12.9379 0.878296 12.4775 0.878296 12.0001C0.878296 11.5227 1.03567 11.0623 1.31996 10.7079C1.89026 10.0175 2.69114 9.11984 3.67137 8.21565" stroke="#A2A2A2" stroke-width="1.71429" stroke-linecap="round" stroke-linejoin="round"/>
<path d="M14.4244 14.4245C15.7633 13.0855 15.7633 10.9147 14.4244 9.57573C13.0855 8.2368 10.9146 8.2368 9.57568 9.57573" stroke="#A2A2A2" stroke-width="1.71429" stroke-linecap="round" stroke-linejoin="round"/>
<path d="M23.1428 23.1428L0.857117 0.857117" stroke="#A2A2A2" stroke-width="1.71429" stroke-linecap="round" stroke-linejoin="round"/>
</g>
<defs>
<clipPath id="clip0_16_158">
<rect width="24" height="24" fill="white"/>
</clipPath>
</defs>
</svg>
