<svg width="204" height="162" viewBox="0 0 204 162" fill="none" xmlns="http://www.w3.org/2000/svg">
<g opacity="0.3">
<rect x="81" y="-3.64286" width="119.703" height="119.703" rx="19.9505" transform="rotate(45 81 -3.64286)" stroke="white" stroke-width="7.9802"/>
<path d="M83.5826 101.368C80.3323 104.618 76.7918 107.307 72.9611 109.436C69.0917 111.525 65.5512 112.783 62.3397 113.208L58.4509 102.935C61.4303 102.432 64.5065 101.407 67.6794 99.8588C70.8523 98.2336 73.6576 96.2022 76.0953 93.7645C77.9526 91.9072 79.2682 90.2434 80.0421 88.773C80.816 87.2252 81.1449 85.8516 81.0288 84.6521C80.9127 83.4526 80.429 82.4272 79.5778 81.5759C78.4943 80.4925 77.2174 80.0669 75.7471 80.299C74.238 80.4925 72.5935 81.0923 70.8136 82.0983C68.995 83.0657 67.0603 84.2265 65.0095 85.5808C62.9588 86.8577 60.8112 88.0765 58.567 89.2373C56.3614 90.3594 54.1366 91.1914 51.8923 91.7331C49.6481 92.2748 47.3845 92.2941 45.1015 91.7911C42.8573 91.2494 40.6517 89.8951 38.4849 87.7283C36.1632 85.4066 34.6735 82.6787 34.0157 79.5445C33.3579 76.3329 33.7255 72.9085 35.1185 69.2713C36.5115 65.5567 39.1233 61.784 42.954 57.9533C45.5078 55.3995 48.3325 53.194 51.428 51.3367C54.4848 49.4407 57.561 48.1444 60.6565 47.4479L64.8935 57.489C61.914 58.3016 59.2248 59.4043 56.8258 60.7973C54.3881 62.1516 52.2599 63.7381 50.4413 65.5567C48.6227 67.3753 47.3458 69.0778 46.6106 70.6643C45.8754 72.2507 45.6046 73.6437 45.798 74.8432C45.9528 76.004 46.4752 77.0294 47.3651 77.9194C48.4099 78.9641 49.6868 79.3897 51.1958 79.1963C52.6662 78.9641 54.2913 78.345 56.0712 77.339C57.8512 76.3329 59.7665 75.1914 61.8173 73.9145C63.9068 72.599 66.0349 71.3608 68.2018 70.1999C70.4073 69.0004 72.6322 68.1298 74.8765 67.5881C77.1207 67.0464 79.365 67.0464 81.6092 67.5881C83.8921 68.0911 86.0977 69.4067 88.2259 71.5349C90.5088 73.8178 91.9598 76.5457 92.5789 79.7186C93.198 82.8915 92.8111 86.3353 91.4181 90.0499C90.0638 93.7258 87.452 97.4985 83.5826 101.368Z" fill="white"/>
<path d="M104.475 115.647C101.465 115.647 98.6471 114.936 96.0205 113.513C93.3939 112.036 91.3145 110.038 89.7823 107.521L91.506 105.715C93.0929 108.123 94.9808 109.956 97.1696 111.215C99.4132 112.473 101.876 113.103 104.557 113.103C108.606 113.103 111.589 111.954 113.504 109.655C115.474 107.302 116.459 103.718 116.459 98.9025V60.406H95.1176V57.8615H119.25V98.9846C119.25 110.093 114.325 115.647 104.475 115.647Z" fill="#33BBFF" stroke="white" stroke-width="7.9802"/>
<path d="M199.525 75.1621C204.264 78.3208 204.264 85.2832 199.525 88.4419L178.779 102.273C172.71 106.319 164.841 100.774 166.61 93.6975L169.1 83.7376C169.418 82.4668 169.418 81.1374 169.1 79.8666L166.61 69.9065C164.841 62.8301 172.71 57.285 178.779 61.3311L199.525 75.1621Z" fill="white"/>
</g>
</svg>
