<svg width="215" height="111" viewBox="0 0 215 111" fill="none" xmlns="http://www.w3.org/2000/svg">
<path d="M171.261 1L26.9205 111H215L171.261 1Z" fill="url(#paint0_linear_14_78)"/>
<path d="M74.2343 70.3761C73.23 71.141 72.1199 71.7405 70.9042 72.1744C69.6884 72.6084 68.5615 72.7856 67.5233 72.7058L66.5535 67.1436C67.2736 67.2006 67.9901 67.1279 68.703 66.9256C69.4398 66.705 70.0832 66.3852 70.6332 65.9663C71.4223 65.3653 71.8992 64.6994 72.0639 63.9685C72.2705 63.2434 72.2393 62.3022 71.9701 61.1448L71.1821 57.9985L71.1509 57.0573L65.4729 35.0427L70.8531 30.945L77.6435 58.1862C78.1986 60.2233 78.4045 61.9965 78.2613 63.5057C78.1421 64.9967 77.7281 66.296 77.0192 67.4035C76.3343 68.4928 75.406 69.4837 74.2343 70.3761ZM72.6188 61.3319L48.8299 47.7184L54.6047 43.3202L73.4967 54.4759L72.6188 61.3319Z" fill="black"/>
<path d="M45.4266 74.606L40.4103 67.6411L42.95 52.1967L49.6215 47.1155L47.6306 62.5393L46.5176 67.1335L45.4266 74.606ZM43.7867 82.0991L23.6366 55.3262L29.2321 51.0645L49.3822 77.8374L43.7867 82.0991ZM58.17 71.1445L45.5046 67.9618L45.7337 60.9187L64.9491 65.9813L58.17 71.1445Z" fill="black"/>
<path d="M29.8838 93.3692C27.8752 94.899 25.7511 96.1005 23.5116 96.9736C21.2539 97.8227 19.2373 98.2422 17.4617 98.2323L16.1213 92.3277C17.7767 92.2779 19.5238 91.9501 21.3627 91.3443C23.2073 90.6963 24.8829 89.7986 26.3893 88.6512C27.5371 87.777 28.3763 86.9676 28.9068 86.2229C29.4431 85.436 29.7248 84.7106 29.7518 84.0467C29.7788 83.3828 29.5931 82.7863 29.1948 82.2571C28.6879 81.5835 28.0266 81.2547 27.2109 81.2704C26.377 81.2622 25.4391 81.4656 24.3973 81.8807C23.3373 82.2717 22.1997 82.7597 20.9847 83.3445C19.7754 83.8871 18.5179 84.3907 17.2123 84.8552C15.9307 85.3016 14.6602 85.588 13.4011 85.7144C12.142 85.8409 10.9115 85.6805 9.70979 85.2334C8.53196 84.7681 7.43613 83.862 6.42228 82.5149C5.33602 81.0716 4.73193 79.4692 4.61001 77.7078C4.4939 75.904 4.95048 74.0615 5.97975 72.1801C7.01483 70.2564 8.71603 68.3931 11.0833 66.5901C12.6616 65.3881 14.3607 64.3967 16.1807 63.616C17.9827 62.8113 19.7501 62.3355 21.4831 62.1888L23.0299 67.9928C21.3513 68.2117 19.8084 68.611 18.4014 69.1907C16.9762 69.7463 15.7017 70.4521 14.5778 71.3081C13.4539 72.1641 12.6329 72.9975 12.1147 73.8085C11.5965 74.6195 11.3449 75.3598 11.3599 76.0296C11.3568 76.6753 11.5634 77.2747 11.9798 77.828C12.4687 78.4775 13.13 78.8063 13.9638 78.8146C14.7796 78.7988 15.7084 78.5834 16.7503 78.1683C17.7922 77.7532 18.9177 77.2743 20.127 76.7318C21.3602 76.171 22.6086 75.6554 23.8722 75.185C25.1597 74.6963 26.433 74.3888 27.6921 74.2624C28.9513 74.1359 30.1697 74.3054 31.3476 74.7707C32.5493 75.2178 33.648 76.1028 34.6438 77.4258C35.7119 78.845 36.295 80.4445 36.393 82.2242C36.491 84.0039 36.0225 85.8555 34.9874 87.7792C33.9763 89.6846 32.2751 91.548 29.8838 93.3692Z" fill="black"/>
<path d="M155.287 77.203H143.725V75.8H168.334V77.203H156.772V107.48H155.287V77.203Z" fill="white"/>
<path d="M128.491 77.203H116.929V75.8H141.538V77.203H129.976V107.48H128.491V77.203Z" fill="white"/>
<path d="M114.742 106.077V107.48H93.4619V75.8H114.112V77.203H94.9915V90.6896H112.087V92.0926H94.9915V106.077H114.742Z" fill="white"/>
<path d="M83.1769 107.661C81.5273 107.661 79.9826 107.269 78.543 106.484C77.1033 105.67 75.9636 104.568 75.1238 103.181L76.0686 102.185C76.9384 103.512 77.9731 104.523 79.1728 105.217C80.4025 105.911 81.7522 106.258 83.2219 106.258C85.4413 106.258 87.0759 105.624 88.1257 104.357C89.2054 103.06 89.7453 101.084 89.7453 98.4286V77.203H78.0481V75.8H91.2749V98.4738C91.2749 104.599 88.5756 107.661 83.1769 107.661Z" fill="white"/>
<path d="M82.4501 39.4047L100.077 41.9227L102.609 24.1953L84.9825 21.6773L82.4501 39.4047ZM129.68 5.7084C129.851 4.5093 129.024 3.39917 127.831 3.22884L108.402 0.453277C107.21 0.282955 106.104 1.11694 105.933 2.31604C105.762 3.51513 106.589 4.62527 107.782 4.79559L125.052 7.26276L122.571 24.632C122.4 25.8311 123.227 26.9412 124.42 27.1116C125.612 27.2819 126.717 26.4479 126.889 25.2488L129.68 5.7084ZM92.5296 31.8L93.8368 33.5533L128.828 7.15331L127.521 5.4L126.214 3.64669L91.2224 30.0467L92.5296 31.8Z" fill="black"/>
<defs>
<linearGradient id="paint0_linear_14_78" x1="193.13" y1="53.8" x2="28.9273" y2="106.034" gradientUnits="userSpaceOnUse">
<stop stop-color="white" stop-opacity="0"/>
<stop offset="0.403846" stop-color="#33BBFF"/>
</linearGradient>
</defs>
</svg>
