<svg width="30" height="33" viewBox="0 0 30 33" fill="none" xmlns="http://www.w3.org/2000/svg">
<path d="M25 33H5C2.23858 33 0.0234357 30.7266 0.841305 28.089C2.19786 23.7143 5.74177 18 15 18C24.2582 18 27.8021 23.7143 29.1587 28.089C29.9766 30.7266 27.7614 33 25 33Z" fill="black"/>
<path d="M24 9C24 11.0822 23.278 13.1 21.9571 14.7095C20.6362 16.3191 18.798 17.4209 16.7558 17.8271C14.7136 18.2333 12.5938 17.9188 10.7574 16.9373C8.9211 15.9558 7.48191 14.3679 6.68508 12.4442C5.88826 10.5205 5.78311 8.37998 6.38754 6.38744C6.99197 4.3949 8.26858 2.67358 9.99987 1.51677C11.7312 0.359967 13.81 -0.160753 15.8822 0.0433373C17.9543 0.247428 19.8916 1.1637 21.364 2.63604L17.8647 6.13532C17.2019 5.47257 16.3299 5.06011 15.3971 4.96824C14.4643 4.87638 13.5286 5.11077 12.7492 5.6315C11.9699 6.15222 11.3953 6.92706 11.1232 7.82398C10.8511 8.7209 10.8984 9.68442 11.2571 10.5504C11.6158 11.4163 12.2636 12.1311 13.0902 12.5729C13.9169 13.0147 14.8711 13.1563 15.7904 12.9734C16.7096 12.7906 17.5371 12.2946 18.1317 11.5701C18.7263 10.8456 19.0513 9.93728 19.0513 9H24Z" fill="black"/>
</svg>
