<svg width="21" height="17" viewBox="0 0 21 17" fill="none" xmlns="http://www.w3.org/2000/svg">
<path d="M6.79 16.251C14.337 16.251 18.465 9.99796 18.465 4.57596C18.465 4.39796 18.465 4.22096 18.453 4.04596C19.2562 3.46448 19.9493 2.74457 20.5 1.91996C19.7511 2.25196 18.9566 2.46972 18.143 2.56596C18.9996 2.05302 19.6408 1.24631 19.947 0.295957C19.1417 0.773843 18.2607 1.11069 17.342 1.29196C16.7234 0.633722 15.905 0.197791 15.0136 0.0516617C14.1222 -0.0944679 13.2075 0.057356 12.4111 0.483626C11.6147 0.909895 10.9811 1.58683 10.6083 2.40962C10.2355 3.2324 10.1444 4.15514 10.349 5.03496C8.71759 4.9532 7.1216 4.52928 5.66465 3.79073C4.20769 3.05217 2.92233 2.01548 1.892 0.747957C1.36732 1.65116 1.20659 2.72038 1.44254 3.73792C1.67848 4.75547 2.29337 5.64483 3.162 6.22496C2.50926 6.20606 1.87063 6.03046 1.3 5.71296V5.76496C1.30039 6.71225 1.6284 7.63026 2.2284 8.36331C2.8284 9.09637 3.66347 9.59934 4.592 9.78696C3.98781 9.95167 3.35389 9.97562 2.739 9.85696C3.00116 10.6724 3.51168 11.3856 4.19913 11.8966C4.88658 12.4076 5.71657 12.6909 6.573 12.707C5.72212 13.3755 4.74779 13.8698 3.70573 14.1615C2.66367 14.4532 1.57432 14.5366 0.5 14.407C2.3766 15.6113 4.56019 16.2501 6.79 16.247" fill="#9CA3AF"/>
</svg>
